<mxfile host="65bd71144e">
    <diagram id="NoGolbLYjK-7WZ_ahOdT" name="Page-1">
        <mxGraphModel dx="1220" dy="2155" grid="1" gridSize="10" guides="1" tooltips="1" connect="1" arrows="1" fold="1" page="1" pageScale="1" pageWidth="850" pageHeight="1100" background="none" math="0" shadow="0">
            <root>
                <mxCell id="0"/>
                <mxCell id="1" parent="0"/>
                <mxCell id="2" value="" style="verticalLabelPosition=bottom;verticalAlign=top;html=1;shape=mxgraph.basic.rect;fillColor2=none;strokeWidth=1;size=20;indent=5;" parent="1" vertex="1">
                    <mxGeometry x="220" y="-150" width="650" height="2020" as="geometry"/>
                </mxCell>
                <mxCell id="14" style="edgeStyle=none;html=1;exitX=0.5;exitY=0.5;exitDx=0;exitDy=0;exitPerimeter=0;entryX=0;entryY=0.5;entryDx=0;entryDy=0;fontSize=17;fontColor=#171717;" parent="1" source="3" target="11" edge="1">
                    <mxGeometry relative="1" as="geometry"/>
                </mxCell>
                <mxCell id="15" style="edgeStyle=none;html=1;entryX=0;entryY=0.5;entryDx=0;entryDy=0;fontSize=17;fontColor=#171717;" parent="1" target="13" edge="1">
                    <mxGeometry relative="1" as="geometry">
                        <mxPoint x="100" y="310" as="sourcePoint"/>
                    </mxGeometry>
                </mxCell>
                <mxCell id="3" value="Actor" style="shape=umlActor;verticalLabelPosition=bottom;verticalAlign=top;html=1;outlineConnect=0;" parent="1" vertex="1">
                    <mxGeometry x="70" y="260" width="60" height="100" as="geometry"/>
                </mxCell>
                <mxCell id="10" value="&lt;font style=&quot;font-size: 23px;&quot;&gt;systeme de gestion d'une cinema&lt;/font&gt;" style="text;html=1;strokeColor=none;fillColor=none;align=center;verticalAlign=middle;whiteSpace=wrap;rounded=0;labelBackgroundColor=none;fontSize=20;" parent="1" vertex="1">
                    <mxGeometry x="250" y="140" width="420" height="30" as="geometry"/>
                </mxCell>
                <mxCell id="11" value="&lt;font style=&quot;font-size: 17px;&quot;&gt;Authentification&lt;/font&gt;" style="ellipse;whiteSpace=wrap;html=1;labelBackgroundColor=none;fontSize=23;" parent="1" vertex="1">
                    <mxGeometry x="385" y="210" width="150" height="80" as="geometry"/>
                </mxCell>
                <mxCell id="13" value="&lt;font style=&quot;font-size: 17px;&quot;&gt;Consulter film&lt;/font&gt;" style="ellipse;whiteSpace=wrap;html=1;labelBackgroundColor=none;fontSize=23;" parent="1" vertex="1">
                    <mxGeometry x="385" y="320" width="150" height="80" as="geometry"/>
                </mxCell>
                <mxCell id="28" style="edgeStyle=none;rounded=1;html=1;exitX=0.5;exitY=0.5;exitDx=0;exitDy=0;exitPerimeter=0;entryX=0;entryY=0.5;entryDx=0;entryDy=0;strokeColor=default;fontSize=17;fontColor=#FFFFFF;endArrow=classic;endFill=1;" parent="1" source="16" target="27" edge="1">
                    <mxGeometry relative="1" as="geometry"/>
                </mxCell>
                <mxCell id="30" style="edgeStyle=none;rounded=1;html=1;exitX=0.5;exitY=0.5;exitDx=0;exitDy=0;exitPerimeter=0;entryX=0;entryY=0.5;entryDx=0;entryDy=0;strokeColor=default;fontSize=17;fontColor=#FFFFFF;endArrow=classic;endFill=1;" parent="1" source="16" target="29" edge="1">
                    <mxGeometry relative="1" as="geometry"/>
                </mxCell>
                <mxCell id="16" value="Actor" style="shape=umlActor;verticalLabelPosition=bottom;verticalAlign=top;html=1;outlineConnect=0;" parent="1" vertex="1">
                    <mxGeometry x="70" y="450" width="60" height="100" as="geometry"/>
                </mxCell>
                <mxCell id="9" value="" style="rounded=0;whiteSpace=wrap;html=1;fontSize=20;strokeColor=none;" parent="1" vertex="1">
                    <mxGeometry x="80" y="550" width="40" height="30" as="geometry"/>
                </mxCell>
                <mxCell id="5" value="&lt;font style=&quot;font-size: 20px;&quot;&gt;Client&lt;/font&gt;" style="text;html=1;strokeColor=none;fillColor=none;align=center;verticalAlign=middle;whiteSpace=wrap;rounded=0;" parent="1" vertex="1">
                    <mxGeometry x="70" y="550" width="60" height="30" as="geometry"/>
                </mxCell>
                <mxCell id="20" value="" style="rounded=0;whiteSpace=wrap;html=1;fontSize=20;strokeColor=none;" parent="1" vertex="1">
                    <mxGeometry x="80" y="360" width="40" height="30" as="geometry"/>
                </mxCell>
                <mxCell id="17" value="&lt;font style=&quot;font-size: 20px;&quot;&gt;Visiteur&lt;/font&gt;" style="text;html=1;strokeColor=none;fillColor=none;align=center;verticalAlign=middle;whiteSpace=wrap;rounded=0;" parent="1" vertex="1">
                    <mxGeometry x="70" y="370" width="60" height="30" as="geometry"/>
                </mxCell>
                <mxCell id="22" style="html=1;exitX=0.5;exitY=0;exitDx=0;exitDy=0;exitPerimeter=0;fontSize=17;fontColor=#FFFFFF;strokeColor=default;rounded=1;endArrow=none;endFill=0;" parent="1" source="16" edge="1">
                    <mxGeometry relative="1" as="geometry">
                        <mxPoint x="50" y="450" as="targetPoint"/>
                        <Array as="points">
                            <mxPoint x="80" y="450"/>
                        </Array>
                    </mxGeometry>
                </mxCell>
                <mxCell id="24" value="" style="edgeStyle=none;orthogonalLoop=1;jettySize=auto;html=1;rounded=1;strokeColor=default;fontSize=17;fontColor=#FFFFFF;endArrow=none;endFill=0;" parent="1" edge="1">
                    <mxGeometry width="100" relative="1" as="geometry">
                        <mxPoint x="50" y="330" as="sourcePoint"/>
                        <mxPoint x="50" y="450" as="targetPoint"/>
                        <Array as="points">
                            <mxPoint x="50" y="410"/>
                        </Array>
                    </mxGeometry>
                </mxCell>
                <mxCell id="25" value="" style="edgeStyle=none;orthogonalLoop=1;jettySize=auto;html=1;rounded=1;strokeColor=default;fontSize=17;fontColor=#FFFFFF;endArrow=classic;endFill=1;" parent="1" edge="1">
                    <mxGeometry width="100" relative="1" as="geometry">
                        <mxPoint x="10" y="330" as="sourcePoint"/>
                        <mxPoint x="80" y="330" as="targetPoint"/>
                        <Array as="points"/>
                    </mxGeometry>
                </mxCell>
                <mxCell id="27" value="&lt;font style=&quot;font-size: 17px;&quot;&gt;Reservation&lt;/font&gt;" style="ellipse;whiteSpace=wrap;html=1;labelBackgroundColor=none;fontSize=23;" parent="1" vertex="1">
                    <mxGeometry x="380" y="410" width="150" height="80" as="geometry"/>
                </mxCell>
                <mxCell id="29" value="&lt;font style=&quot;font-size: 17px;&quot;&gt;Consulter l'historique de ses&amp;nbsp;&lt;/font&gt;&lt;span style=&quot;font-size: 17px;&quot;&gt;reservations&lt;/span&gt;" style="ellipse;whiteSpace=wrap;html=1;labelBackgroundColor=none;fontSize=23;" parent="1" vertex="1">
                    <mxGeometry x="380" y="525" width="150" height="125" as="geometry"/>
                </mxCell>
                <mxCell id="40" style="edgeStyle=none;html=1;exitX=0.5;exitY=0.5;exitDx=0;exitDy=0;exitPerimeter=0;entryX=0;entryY=0.5;entryDx=0;entryDy=0;" edge="1" parent="1" source="31" target="38">
                    <mxGeometry relative="1" as="geometry"/>
                </mxCell>
                <mxCell id="43" style="edgeStyle=none;html=1;exitX=0;exitY=0.5;exitDx=0;exitDy=0;entryX=0;entryY=0.5;entryDx=0;entryDy=0;" edge="1" parent="1" source="41" target="41">
                    <mxGeometry relative="1" as="geometry"/>
                </mxCell>
                <mxCell id="44" style="edgeStyle=none;html=1;exitX=0.5;exitY=0.5;exitDx=0;exitDy=0;exitPerimeter=0;entryX=0;entryY=0.5;entryDx=0;entryDy=0;" edge="1" parent="1" source="31" target="41">
                    <mxGeometry relative="1" as="geometry">
                        <mxPoint x="390" y="870" as="targetPoint"/>
                    </mxGeometry>
                </mxCell>
                <mxCell id="45" style="edgeStyle=none;html=1;exitX=0.5;exitY=0.5;exitDx=0;exitDy=0;exitPerimeter=0;entryX=0;entryY=0.5;entryDx=0;entryDy=0;" edge="1" parent="1" source="31" target="42">
                    <mxGeometry relative="1" as="geometry"/>
                </mxCell>
                <mxCell id="31" value="Actor" style="shape=umlActor;verticalLabelPosition=bottom;verticalAlign=top;html=1;outlineConnect=0;" parent="1" vertex="1">
                    <mxGeometry x="60" y="730" width="60" height="100" as="geometry"/>
                </mxCell>
                <mxCell id="32" value="" style="rounded=0;whiteSpace=wrap;html=1;fontSize=20;strokeColor=none;" parent="1" vertex="1">
                    <mxGeometry x="70" y="830" width="40" height="30" as="geometry"/>
                </mxCell>
                <mxCell id="33" value="&lt;span style=&quot;font-size: 20px;&quot;&gt;Admin&lt;/span&gt;" style="text;html=1;strokeColor=none;fillColor=none;align=center;verticalAlign=middle;whiteSpace=wrap;rounded=0;" parent="1" vertex="1">
                    <mxGeometry x="60" y="830" width="60" height="30" as="geometry"/>
                </mxCell>
                <mxCell id="34" style="html=1;exitX=0.5;exitY=0;exitDx=0;exitDy=0;exitPerimeter=0;fontSize=17;fontColor=#FFFFFF;strokeColor=default;rounded=1;endArrow=none;endFill=0;" parent="1" source="31" edge="1">
                    <mxGeometry relative="1" as="geometry">
                        <mxPoint x="40" y="730" as="targetPoint"/>
                        <Array as="points">
                            <mxPoint x="70" y="730"/>
                        </Array>
                    </mxGeometry>
                </mxCell>
                <mxCell id="35" value="" style="edgeStyle=none;orthogonalLoop=1;jettySize=auto;html=1;rounded=1;strokeColor=default;fontSize=17;fontColor=#FFFFFF;endArrow=none;endFill=0;" parent="1" edge="1">
                    <mxGeometry width="100" relative="1" as="geometry">
                        <mxPoint x="40" y="330" as="sourcePoint"/>
                        <mxPoint x="40" y="730" as="targetPoint"/>
                        <Array as="points">
                            <mxPoint x="40" y="570"/>
                        </Array>
                    </mxGeometry>
                </mxCell>
                <mxCell id="38" value="&lt;font style=&quot;font-size: 17px;&quot;&gt;Manipuler&amp;nbsp;&lt;/font&gt;" style="ellipse;whiteSpace=wrap;html=1;labelBackgroundColor=none;fontSize=23;" vertex="1" parent="1">
                    <mxGeometry x="385" y="710" width="150" height="80" as="geometry"/>
                </mxCell>
                <mxCell id="41" value="&lt;font style=&quot;font-size: 17px;&quot;&gt;Associer les projections&lt;/font&gt;" style="ellipse;whiteSpace=wrap;html=1;labelBackgroundColor=none;fontSize=23;" vertex="1" parent="1">
                    <mxGeometry x="380" y="830" width="150" height="80" as="geometry"/>
                </mxCell>
                <mxCell id="42" value="&lt;font style=&quot;font-size: 17px;&quot;&gt;Consultation des statistiques&lt;/font&gt;" style="ellipse;whiteSpace=wrap;html=1;labelBackgroundColor=none;fontSize=23;" vertex="1" parent="1">
                    <mxGeometry x="380" y="930" width="150" height="80" as="geometry"/>
                </mxCell>
                <mxCell id="58" style="edgeStyle=none;html=1;exitX=0.5;exitY=0.5;exitDx=0;exitDy=0;exitPerimeter=0;entryX=0;entryY=0.5;entryDx=0;entryDy=0;fontSize=23;" edge="1" parent="1" source="46" target="57">
                    <mxGeometry relative="1" as="geometry"/>
                </mxCell>
                <mxCell id="61" style="edgeStyle=none;html=1;exitX=0.5;exitY=0.5;exitDx=0;exitDy=0;exitPerimeter=0;entryX=0;entryY=0.5;entryDx=0;entryDy=0;fontSize=23;" edge="1" parent="1" source="46" target="60">
                    <mxGeometry relative="1" as="geometry"/>
                </mxCell>
                <mxCell id="63" style="edgeStyle=none;html=1;exitX=0.5;exitY=0.5;exitDx=0;exitDy=0;exitPerimeter=0;entryX=0;entryY=0.5;entryDx=0;entryDy=0;fontSize=23;" edge="1" parent="1" source="46" target="62">
                    <mxGeometry relative="1" as="geometry"/>
                </mxCell>
                <mxCell id="46" value="Actor" style="shape=umlActor;verticalLabelPosition=bottom;verticalAlign=top;html=1;outlineConnect=0;" vertex="1" parent="1">
                    <mxGeometry x="60" y="1220" width="60" height="100" as="geometry"/>
                </mxCell>
                <mxCell id="51" value="" style="whiteSpace=wrap;html=1;strokeColor=none;" vertex="1" parent="1">
                    <mxGeometry x="77.5" y="1320" width="32.5" height="20" as="geometry"/>
                </mxCell>
                <mxCell id="56" value="&lt;span style=&quot;font-size: 20px;&quot;&gt;Responsable des Projections&lt;/span&gt;" style="text;html=1;strokeColor=none;fillColor=none;align=center;verticalAlign=middle;whiteSpace=wrap;rounded=0;" vertex="1" parent="1">
                    <mxGeometry x="25" y="1320" width="130" height="90" as="geometry"/>
                </mxCell>
                <mxCell id="57" value="&lt;font style=&quot;font-size: 17px;&quot;&gt;Creation des horaires de projections&lt;/font&gt;" style="ellipse;whiteSpace=wrap;html=1;labelBackgroundColor=none;fontSize=23;" vertex="1" parent="1">
                    <mxGeometry x="380" y="1070" width="150" height="160" as="geometry"/>
                </mxCell>
                <mxCell id="60" value="&lt;span style=&quot;font-size: 17px;&quot;&gt;Verifier les horaires&lt;/span&gt;" style="ellipse;whiteSpace=wrap;html=1;labelBackgroundColor=none;fontSize=23;" vertex="1" parent="1">
                    <mxGeometry x="385" y="1270" width="150" height="80" as="geometry"/>
                </mxCell>
                <mxCell id="62" value="&lt;font style=&quot;font-size: 17px;&quot;&gt;Modifier ou annuler une projection&lt;/font&gt;" style="ellipse;whiteSpace=wrap;html=1;labelBackgroundColor=none;fontSize=23;" vertex="1" parent="1">
                    <mxGeometry x="385" y="1380" width="150" height="160" as="geometry"/>
                </mxCell>
                <mxCell id="76" style="edgeStyle=none;html=1;exitX=0.5;exitY=0.5;exitDx=0;exitDy=0;exitPerimeter=0;entryX=0;entryY=0.5;entryDx=0;entryDy=0;fontSize=23;" edge="1" parent="1" source="64" target="74">
                    <mxGeometry relative="1" as="geometry"/>
                </mxCell>
                <mxCell id="77" style="edgeStyle=none;html=1;exitX=0.5;exitY=0.5;exitDx=0;exitDy=0;exitPerimeter=0;entryX=0;entryY=0.5;entryDx=0;entryDy=0;fontSize=23;" edge="1" parent="1" source="64" target="75">
                    <mxGeometry relative="1" as="geometry"/>
                </mxCell>
                <mxCell id="64" value="Actor" style="shape=umlActor;verticalLabelPosition=bottom;verticalAlign=top;html=1;outlineConnect=0;" vertex="1" parent="1">
                    <mxGeometry x="63.75" y="1690" width="60" height="100" as="geometry"/>
                </mxCell>
                <mxCell id="65" value="" style="whiteSpace=wrap;html=1;strokeColor=none;" vertex="1" parent="1">
                    <mxGeometry x="81.25" y="1790" width="32.5" height="20" as="geometry"/>
                </mxCell>
                <mxCell id="66" value="&lt;span style=&quot;font-size: 20px;&quot;&gt;Responsable des Tickets&lt;/span&gt;" style="text;html=1;strokeColor=none;fillColor=none;align=center;verticalAlign=middle;whiteSpace=wrap;rounded=0;" vertex="1" parent="1">
                    <mxGeometry x="28.75" y="1790" width="130" height="90" as="geometry"/>
                </mxCell>
                <mxCell id="74" value="&lt;span style=&quot;font-size: 17px;&quot;&gt;Suivre les reservations&lt;/span&gt;" style="ellipse;whiteSpace=wrap;html=1;labelBackgroundColor=none;fontSize=23;" vertex="1" parent="1">
                    <mxGeometry x="385" y="1580" width="150" height="80" as="geometry"/>
                </mxCell>
                <mxCell id="75" value="&lt;span style=&quot;font-size: 17px;&quot;&gt;assurer la capacite des salles&lt;/span&gt;" style="ellipse;whiteSpace=wrap;html=1;labelBackgroundColor=none;fontSize=23;" vertex="1" parent="1">
                    <mxGeometry x="385" y="1710" width="150" height="80" as="geometry"/>
                </mxCell>
                <mxCell id="82" value="" style="edgeStyle=none;orthogonalLoop=1;jettySize=auto;html=1;fontSize=23;entryX=0.5;entryY=0;entryDx=0;entryDy=0;entryPerimeter=0;startArrow=none;startFill=0;endArrow=none;endFill=0;" edge="1" parent="1" target="46">
                    <mxGeometry width="100" relative="1" as="geometry">
                        <mxPoint x="30" y="1220" as="sourcePoint"/>
                        <mxPoint x="100" y="1150" as="targetPoint"/>
                        <Array as="points"/>
                    </mxGeometry>
                </mxCell>
                <mxCell id="84" value="" style="edgeStyle=none;orthogonalLoop=1;jettySize=auto;html=1;fontSize=23;startArrow=none;startFill=0;endArrow=none;endFill=0;" edge="1" parent="1">
                    <mxGeometry width="100" relative="1" as="geometry">
                        <mxPoint x="29" y="330" as="sourcePoint"/>
                        <mxPoint x="28.75" y="1220" as="targetPoint"/>
                        <Array as="points"/>
                    </mxGeometry>
                </mxCell>
                <mxCell id="85" value="" style="edgeStyle=none;orthogonalLoop=1;jettySize=auto;html=1;fontSize=23;startArrow=none;startFill=0;endArrow=none;endFill=0;" edge="1" parent="1">
                    <mxGeometry width="100" relative="1" as="geometry">
                        <mxPoint x="10" y="330" as="sourcePoint"/>
                        <mxPoint x="10" y="1690" as="targetPoint"/>
                        <Array as="points"/>
                    </mxGeometry>
                </mxCell>
                <mxCell id="86" value="" style="edgeStyle=none;orthogonalLoop=1;jettySize=auto;html=1;fontSize=23;startArrow=none;startFill=0;endArrow=none;endFill=0;" edge="1" parent="1">
                    <mxGeometry width="100" relative="1" as="geometry">
                        <mxPoint x="10" y="1690" as="sourcePoint"/>
                        <mxPoint x="96.25" y="1690" as="targetPoint"/>
                        <Array as="points"/>
                    </mxGeometry>
                </mxCell>
            </root>
        </mxGraphModel>
    </diagram>
</mxfile>